<?xml version="1.0" encoding="UTF-8" standalone="no"?>
<!DOCTYPE svg PUBLIC "-//W3C//DTD SVG 1.0//EN" "http://www.w3.org/TR/2001/PR-SVG-20010719/DTD/svg10.dtd">
<svg width="46cm" height="54cm" viewBox="29 85 919 1074" xmlns="http://www.w3.org/2000/svg" xmlns:xlink="http://www.w3.org/1999/xlink">
  <g>
    <ellipse style="fill: #ffffff" cx="55.9082" cy="104.549" rx="6" ry="6"/>
    <ellipse style="fill: none; fill-opacity:0; stroke-width: 2; stroke: #000000" cx="55.9082" cy="104.549" rx="6" ry="6"/>
    <line style="fill: none; fill-opacity:0; stroke-width: 2; stroke: #000000" x1="31.9082" y1="116.549" x2="79.9082" y2="116.549"/>
    <line style="fill: none; fill-opacity:0; stroke-width: 2; stroke: #000000" x1="55.9082" y1="110.549" x2="55.9082" y2="140.549"/>
    <line style="fill: none; fill-opacity:0; stroke-width: 2; stroke: #000000" x1="55.9082" y1="140.549" x2="31.9082" y2="166.549"/>
    <line style="fill: none; fill-opacity:0; stroke-width: 2; stroke: #000000" x1="55.9082" y1="140.549" x2="79.9082" y2="166.549"/>
    <text style="fill: #000000;text-anchor:middle;font-size:12.8;font-family:sanserif;font-style:normal;font-weight:normal" x="55.9082" y="190.449">
      <tspan x="55.9082" y="190.449">APP</tspan>
    </text>
  </g>
  <g>
    <rect style="fill: #ffffff" x="246.3" y="130.557" width="127.421" height="44.5"/>
    <rect style="fill: none; fill-opacity:0; stroke-width: 2; stroke: #000000" x="246.3" y="130.557" width="127.421" height="44.5"/>
  </g>
  <text style="fill: #000000;text-anchor:start;font-size:12.8;font-family:sanserif;font-style:normal;font-weight:normal" x="265.23" y="155.505">
    <tspan x="265.23" y="155.505">GetOperation</tspan>
  </text>
  <g>
    <rect style="fill: #ffffff" x="103.75" y="130.299" width="126.077" height="44.5"/>
    <rect style="fill: none; fill-opacity:0; stroke-width: 2; stroke: #000000" x="103.75" y="130.299" width="126.077" height="44.5"/>
  </g>
  <text style="fill: #000000;text-anchor:start;font-size:12.8;font-family:sanserif;font-style:normal;font-weight:normal" x="121.158" y="157.165">
    <tspan x="121.158" y="157.165">RemoteCache</tspan>
  </text>
  <g>
    <line style="fill: none; fill-opacity:0; stroke-width: 2; stroke: #000000" x1="34.8142" y1="237.178" x2="167.768" y2="237.749"/>
    <polyline style="fill: none; fill-opacity:0; stroke-width: 2; stroke: #000000" points="159.983,242.715 170.004,237.758 160.026,232.716 "/>
  </g>
  <line style="fill: none; fill-opacity:0; stroke-width: 4; stroke: #000000" x1="34.7298" y1="200.048" x2="35.1582" y2="1147"/>
  <line style="fill: none; fill-opacity:0; stroke-width: 4; stroke: #000000" x1="173.583" y1="200.318" x2="172.908" y2="1148.5"/>
  <line style="fill: none; fill-opacity:0; stroke-width: 4; stroke: #000000" x1="321.084" y1="200.318" x2="321.908" y2="1154"/>
  <line style="fill: none; fill-opacity:0; stroke-width: 4; stroke: #000000" x1="444.834" y1="200.568" x2="443.908" y2="1154.5"/>
  <line style="fill: none; fill-opacity:0; stroke-width: 4; stroke: #000000" x1="608.894" y1="201.118" x2="607.908" y2="1157"/>
  <text style="fill: #000000;text-anchor:start;font-size:9.6;font-family:sanserif;font-style:normal;font-weight:normal" x="61.645" y="228.478">
    <tspan x="61.645" y="228.478">RM.get(key)</tspan>
  </text>
  <g>
    <line style="fill: none; fill-opacity:0; stroke-width: 2; stroke: #000000" x1="173.908" y1="351.268" x2="316.936" y2="351.753"/>
    <polyline style="fill: none; fill-opacity:0; stroke-width: 2; stroke: #000000" points="309.155,356.726 319.172,351.76 309.189,346.727 "/>
  </g>
  <text style="fill: #000000;text-anchor:start;font-size:9.6;font-family:sanserif;font-style:normal;font-weight:normal" x="202.268" y="342.75">
    <tspan x="202.268" y="342.75">GO.execute()</tspan>
  </text>
  <g>
    <line style="fill: none; fill-opacity:0; stroke-width: 2; stroke: #000000" x1="319.75" y1="392.5" x2="438.778" y2="392.018"/>
    <polyline style="fill: none; fill-opacity:0; stroke-width: 2; stroke: #000000" points="431.034,397.049 441.014,392.009 430.994,387.05 "/>
  </g>
  <text style="fill: #000000;text-anchor:start;font-size:9.6;font-family:sanserif;font-style:normal;font-weight:normal" x="333.908" y="376.688">
    <tspan x="333.908" y="376.688">TF.get_transport(key)</tspan>
  </text>
  <g>
    <line style="fill: none; fill-opacity:0; stroke-width: 2; stroke: #000000" x1="321.908" y1="505.518" x2="605.403" y2="504.516"/>
    <polyline style="fill: none; fill-opacity:0; stroke-width: 2; stroke: #000000" points="597.657,509.543 607.639,504.508 597.621,499.543 "/>
  </g>
  <g>
    <line style="fill: none; fill-opacity:0; stroke-width: 2; stroke: #000000" x1="175.032" y1="281.218" x2="319.028" y2="281.007"/>
    <polyline style="fill: none; fill-opacity:0; stroke-width: 2; stroke: #000000" points="311.271,286.018 321.264,281.003 311.257,276.018 "/>
  </g>
  <text style="fill: #000000;text-anchor:start;font-size:9.6;font-family:sanserif;font-style:normal;font-weight:normal" x="188.018" y="256.25">
    <tspan x="188.018" y="256.25">new GetOperation(TF,</tspan>
    <tspan x="188.018" y="268.25">key, cache_name, flags)</tspan>
  </text>
  <g>
    <line style="fill: none; fill-opacity:0; stroke-width: 2; stroke-dasharray: 20; stroke: #000000" x1="321.782" y1="307.968" x2="176.754" y2="306.998"/>
    <polyline style="fill: none; fill-opacity:0; stroke-width: 2; stroke: #000000" points="184.551,302.05 174.518,306.983 184.484,312.05 "/>
  </g>
  <text style="fill: #000000;text-anchor:start;font-size:9.6;font-family:sanserif;font-style:normal;font-weight:normal" x="239.514" y="302.518">
    <tspan x="239.514" y="302.518">OK</tspan>
  </text>
  <g>
    <line style="fill: none; fill-opacity:0; stroke-width: 2; stroke-dasharray: 20; stroke: #000000" x1="607.25" y1="634.624" x2="325.347" y2="634.994"/>
    <polyline style="fill: none; fill-opacity:0; stroke-width: 2; stroke: #000000" points="333.104,629.984 323.111,634.997 333.118,639.984 "/>
  </g>
  <g>
    <line style="fill: none; fill-opacity:0; stroke-width: 2; stroke-dasharray: 20; stroke: #000000" x1="321.25" y1="1120.12" x2="177.082" y2="1119.76"/>
    <polyline style="fill: none; fill-opacity:0; stroke-width: 2; stroke: #000000" points="184.859,1114.78 174.846,1119.76 184.834,1124.78 "/>
  </g>
  <g>
    <line style="fill: none; fill-opacity:0; stroke-width: 2; stroke-dasharray: 20; stroke: #000000" x1="172.735" y1="1138.25" x2="39.9023" y2="1138.69"/>
    <polyline style="fill: none; fill-opacity:0; stroke-width: 2; stroke: #000000" points="47.6497,1133.66 37.6663,1138.7 47.6827,1143.66 "/>
  </g>
  <text style="fill: #000000;text-anchor:start;font-size:9.6;font-family:sanserif;font-style:normal;font-weight:normal" x="234.11" y="1112.25">
    <tspan x="234.11" y="1112.25">value</tspan>
  </text>
  <text style="fill: #000000;text-anchor:start;font-size:9.6;font-family:sanserif;font-style:normal;font-weight:normal" x="96.2832" y="1126.79">
    <tspan x="96.2832" y="1126.79">value</tspan>
  </text>
  <g>
    <rect style="fill: #ffffff" x="560.308" y="131.71" width="103" height="44.5"/>
    <rect style="fill: none; fill-opacity:0; stroke-width: 2; stroke: #000000" x="560.308" y="131.71" width="103" height="44.5"/>
  </g>
  <text style="fill: #000000;text-anchor:start;font-size:12.8;font-family:sanserif;font-style:normal;font-weight:normal" x="577.838" y="156.692">
    <tspan x="577.838" y="156.692">Transport</tspan>
  </text>
  <g>
    <rect style="fill: #ffffff" x="398.808" y="131.268" width="132.817" height="44.5"/>
    <rect style="fill: none; fill-opacity:0; stroke-width: 2; stroke: #000000" x="398.808" y="131.268" width="132.817" height="44.5"/>
  </g>
  <text style="fill: #000000;text-anchor:start;font-size:12.8;font-family:sanserif;font-style:normal;font-weight:normal" x="411.476" y="158.529">
    <tspan x="411.476" y="158.529">TransportFactory</tspan>
  </text>
  <g>
    <line style="fill: none; fill-opacity:0; stroke-width: 2; stroke-dasharray: 20; stroke: #000000" x1="443.75" y1="437.124" x2="325.026" y2="436.503"/>
    <polyline style="fill: none; fill-opacity:0; stroke-width: 2; stroke: #000000" points="332.816,431.544 322.79,436.492 332.764,441.544 "/>
  </g>
  <text style="fill: #000000;text-anchor:start;font-size:9.6;font-family:sanserif;font-style:normal;font-weight:normal" x="361.5" y="423.474">
    <tspan x="361.5" y="423.474">transport</tspan>
  </text>
  <text style="fill: #000000;text-anchor:start;font-size:9.6;font-family:sanserif;font-style:normal;font-weight:normal" x="368.5" y="589.974">
    <tspan x="368.5" y="589.974">value</tspan>
  </text>
  <g>
    <rect style="fill: #ffffff" x="682" y="131.2" width="103" height="44.5"/>
    <rect style="fill: none; fill-opacity:0; stroke-width: 2; stroke: #000000" x="682" y="131.2" width="103" height="44.5"/>
  </g>
  <text style="fill: #000000;text-anchor:start;font-size:12.8;font-family:sanserif;font-style:normal;font-weight:normal" x="697.53" y="158.682">
    <tspan x="697.53" y="158.682">Codec11</tspan>
  </text>
  <line style="fill: none; fill-opacity:0; stroke-width: 4; stroke: #000000" x1="728.785" y1="203.201" x2="727.908" y2="1157.5"/>
  <text style="fill: #000000;text-anchor:start;font-size:9.6;font-family:sanserif;font-style:normal;font-weight:normal" x="64.375" y="221.65">
    <tspan x="64.375" y="221.65"></tspan>
  </text>
  <text style="fill: #000000;text-anchor:start;font-size:9.6;font-family:sanserif;font-style:normal;font-weight:normal" x="327.658" y="469.5">
    <tspan x="327.658" y="469.5">T.write_header(</tspan>
    <tspan x="327.658" y="481.5">op_code, cache_name, </tspan>
    <tspan x="327.658" y="493.5">flags)</tspan>
  </text>
  <g>
    <line style="fill: none; fill-opacity:0; stroke-width: 2; stroke: #000000" x1="610.379" y1="517.297" x2="721.403" y2="518.453"/>
    <polyline style="fill: none; fill-opacity:0; stroke-width: 2; stroke: #000000" points="713.588,523.372 723.639,518.477 713.692,513.373 "/>
  </g>
  <text style="fill: #000000;text-anchor:start;font-size:9.6;font-family:sanserif;font-style:normal;font-weight:normal" x="615.658" y="483.5">
    <tspan x="615.658" y="483.5">C11.write_header(</tspan>
    <tspan x="615.658" y="495.5">op_code, cache_name,</tspan>
    <tspan x="615.658" y="507.5">flags)</tspan>
  </text>
  <g>
    <line style="fill: none; fill-opacity:0; stroke-width: 2; stroke: #000000" x1="727.385" y1="551.229" x2="610.347" y2="551.49"/>
    <polyline style="fill: none; fill-opacity:0; stroke-width: 2; stroke: #000000" points="618.1,546.473 608.111,551.495 618.122,556.473 "/>
  </g>
  <text style="fill: #000000;text-anchor:start;font-size:9.6;font-family:sanserif;font-style:normal;font-weight:normal" x="629.375" y="541.65">
    <tspan x="629.375" y="541.65">T.write_char("")</tspan>
  </text>
  <g>
    <line style="fill: none; fill-opacity:0; stroke-width: 2; stroke-dasharray: 20; stroke: #000000" x1="607.875" y1="578.5" x2="725.403" y2="579.463"/>
    <polyline style="fill: none; fill-opacity:0; stroke-width: 2; stroke: #000000" points="717.598,584.4 727.639,579.482 717.68,574.4 "/>
  </g>
  <text style="fill: #000000;text-anchor:start;font-size:9.6;font-family:sanserif;font-style:normal;font-weight:normal" x="652.375" y="569.65">
    <tspan x="652.375" y="569.65">OK</tspan>
  </text>
  <g>
    <line style="fill: none; fill-opacity:0; stroke-width: 2; stroke-dasharray: 20; stroke: #000000" x1="725.875" y1="625.5" x2="613.083" y2="626.231"/>
    <polyline style="fill: none; fill-opacity:0; stroke-width: 2; stroke: #000000" points="620.814,621.18 610.847,626.245 620.879,631.18 "/>
  </g>
  <text style="fill: #000000;text-anchor:start;font-size:9.6;font-family:sanserif;font-style:normal;font-weight:normal" x="653.375" y="617.65">
    <tspan x="653.375" y="617.65">OK</tspan>
  </text>
  <text style="fill: #000000;text-anchor:start;font-size:9.6;font-family:sanserif;font-style:normal;font-weight:normal" x="510.875" y="619.5">
    <tspan x="510.875" y="619.5">OK</tspan>
  </text>
  <text style="fill: #000000;text-anchor:start;font-size:9.6;font-family:sanserif;font-style:normal;font-weight:normal" x="644.375" y="600.05">
    <tspan x="644.375" y="600.05">..........</tspan>
  </text>
  <g>
    <line style="fill: none; fill-opacity:0; stroke-width: 2; stroke: #000000" x1="321.379" y1="672.797" x2="604.873" y2="671.795"/>
    <polyline style="fill: none; fill-opacity:0; stroke-width: 2; stroke: #000000" points="597.127,676.822 607.109,671.787 597.092,666.822 "/>
  </g>
  <text style="fill: #000000;text-anchor:start;font-size:9.6;font-family:sanserif;font-style:normal;font-weight:normal" x="344.375" y="654.15">
    <tspan x="344.375" y="654.15">T.write_array(</tspan>
    <tspan x="344.375" y="666.15">key)</tspan>
  </text>
  <g>
    <line style="fill: none; fill-opacity:0; stroke-width: 2; stroke-dasharray: 20; stroke: #000000" x1="607.986" y1="684.456" x2="326.083" y2="684.827"/>
    <polyline style="fill: none; fill-opacity:0; stroke-width: 2; stroke: #000000" points="333.841,679.816 323.847,684.83 333.854,689.816 "/>
  </g>
  <text style="fill: #000000;text-anchor:start;font-size:9.6;font-family:sanserif;font-style:normal;font-weight:normal" x="344.375" y="710.15">
    <tspan x="344.375" y="710.15">T.flush()</tspan>
  </text>
  <g>
    <line style="fill: none; fill-opacity:0; stroke-width: 2; stroke: #000000" x1="323.379" y1="716.797" x2="606.873" y2="715.795"/>
    <polyline style="fill: none; fill-opacity:0; stroke-width: 2; stroke: #000000" points="599.127,720.822 609.109,715.787 599.092,710.822 "/>
  </g>
  <g>
    <line style="fill: none; fill-opacity:0; stroke-width: 2; stroke: #000000" x1="610.879" y1="731.997" x2="894.373" y2="730.995"/>
    <polyline style="fill: none; fill-opacity:0; stroke-width: 2; stroke: #000000" points="886.627,736.022 896.609,730.987 886.592,726.022 "/>
  </g>
  <text style="fill: #000000;text-anchor:start;font-size:9.6;font-family:sanserif;font-style:normal;font-weight:normal" x="910.375" y="753.65">
    <tspan x="910.375" y="753.65">SERVER</tspan>
  </text>
  <g>
    <line style="fill: none; fill-opacity:0; stroke-width: 2; stroke-dasharray: 20; stroke: #000000" x1="606.986" y1="740.956" x2="325.083" y2="741.327"/>
    <polyline style="fill: none; fill-opacity:0; stroke-width: 2; stroke: #000000" points="332.841,736.316 322.847,741.33 332.854,746.316 "/>
  </g>
  <g>
    <line style="fill: none; fill-opacity:0; stroke-width: 2; stroke: #000000" x1="320.908" y1="794.5" x2="601.436" y2="793.516"/>
    <polyline style="fill: none; fill-opacity:0; stroke-width: 2; stroke: #000000" points="593.69,798.543 603.672,793.508 593.655,788.543 "/>
  </g>
  <text style="fill: #000000;text-anchor:start;font-size:9.6;font-family:sanserif;font-style:normal;font-weight:normal" x="337.879" y="779.65">
    <tspan x="337.879" y="779.65">T.read_header()</tspan>
  </text>
  <g>
    <line style="fill: none; fill-opacity:0; stroke-width: 2; stroke: #000000" x1="607.912" y1="815.718" x2="720.436" y2="815.508"/>
    <polyline style="fill: none; fill-opacity:0; stroke-width: 2; stroke: #000000" points="712.681,820.523 722.672,815.504 712.663,810.523 "/>
  </g>
  <text style="fill: #000000;text-anchor:start;font-size:9.6;font-family:sanserif;font-style:normal;font-weight:normal" x="615.408" y="801.65">
    <tspan x="615.408" y="801.65">C11.read_header()</tspan>
  </text>
  <g>
    <line style="fill: none; fill-opacity:0; stroke-width: 2; stroke: #000000" x1="728.155" y1="844.229" x2="611.116" y2="844.49"/>
    <polyline style="fill: none; fill-opacity:0; stroke-width: 2; stroke: #000000" points="618.869,839.473 608.88,844.495 618.891,849.473 "/>
  </g>
  <text style="fill: #000000;text-anchor:start;font-size:9.6;font-family:sanserif;font-style:normal;font-weight:normal" x="630.144" y="834.65">
    <tspan x="630.144" y="834.65">T.read_char()</tspan>
  </text>
  <g>
    <line style="fill: none; fill-opacity:0; stroke-width: 2; stroke-dasharray: 20; stroke: #000000" x1="608.644" y1="868.5" x2="726.172" y2="869.463"/>
    <polyline style="fill: none; fill-opacity:0; stroke-width: 2; stroke: #000000" points="718.368,874.4 728.408,869.482 718.45,864.4 "/>
  </g>
  <text style="fill: #000000;text-anchor:start;font-size:9.6;font-family:sanserif;font-style:normal;font-weight:normal" x="653.144" y="862.65">
    <tspan x="653.144" y="862.65">OK</tspan>
  </text>
  <g>
    <line style="fill: none; fill-opacity:0; stroke-width: 2; stroke-dasharray: 20; stroke: #000000" x1="725.644" y1="970.5" x2="612.852" y2="971.231"/>
    <polyline style="fill: none; fill-opacity:0; stroke-width: 2; stroke: #000000" points="620.584,966.18 610.616,971.245 620.648,976.18 "/>
  </g>
  <text style="fill: #000000;text-anchor:start;font-size:9.6;font-family:sanserif;font-style:normal;font-weight:normal" x="644.144" y="881.05">
    <tspan x="644.144" y="881.05">..........</tspan>
  </text>
  <g>
    <line style="fill: none; fill-opacity:0; stroke-width: 2; stroke: #000000" x1="729.412" y1="916.779" x2="616.38" y2="916.992"/>
    <polyline style="fill: none; fill-opacity:0; stroke-width: 2; stroke: #000000" points="624.135,911.977 614.144,916.996 624.154,921.977 "/>
  </g>
  <g>
    <line style="fill: none; fill-opacity:0; stroke-width: 2; stroke: #000000" x1="610.908" y1="927" x2="450.116" y2="927.816"/>
    <polyline style="fill: none; fill-opacity:0; stroke-width: 2; stroke: #000000" points="457.855,922.777 447.88,927.828 457.906,932.777 "/>
  </g>
  <text style="fill: #000000;text-anchor:start;font-size:9.6;font-family:sanserif;font-style:normal;font-weight:normal" x="626.408" y="898.15">
    <tspan x="626.408" y="898.15">T.update_transport(</tspan>
    <tspan x="626.408" y="910.15">host, port, hash)</tspan>
  </text>
  <text style="fill: #000000;text-anchor:start;font-size:9.6;font-family:sanserif;font-style:normal;font-weight:normal" x="478.408" y="901.15">
    <tspan x="478.408" y="901.15">TF.update_transport(</tspan>
    <tspan x="478.408" y="913.15">host, port, hash)</tspan>
  </text>
  <g>
    <line style="fill: none; fill-opacity:0; stroke-width: 2; stroke-dasharray: 20; stroke: #000000" x1="445.416" y1="940.908" x2="604.436" y2="940.997"/>
    <polyline style="fill: none; fill-opacity:0; stroke-width: 2; stroke: #000000" points="596.669,945.993 606.672,940.999 596.675,935.993 "/>
  </g>
  <g>
    <line style="fill: none; fill-opacity:0; stroke-width: 2; stroke-dasharray: 20; stroke: #000000" x1="607.916" y1="956.108" x2="725.444" y2="957.071"/>
    <polyline style="fill: none; fill-opacity:0; stroke-width: 2; stroke: #000000" points="717.64,962.008 727.68,957.09 717.722,952.008 "/>
  </g>
  <g>
    <line style="fill: none; fill-opacity:0; stroke-width: 2; stroke-dasharray: 20; stroke: #000000" x1="609.416" y1="985.308" x2="452.38" y2="983.064"/>
    <polyline style="fill: none; fill-opacity:0; stroke-width: 2; stroke: #000000" points="460.214,978.175 450.144,983.032 460.072,988.174 "/>
  </g>
  <g>
    <line style="fill: none; fill-opacity:0; stroke-width: 2; stroke-dasharray: 20; stroke: #000000" x1="896.916" y1="779.008" x2="768.38" y2="777.551"/>
    <polyline style="fill: none; fill-opacity:0; stroke-width: 2; stroke: #000000" points="776.2,772.639 766.144,777.525 776.087,782.638 "/>
  </g>
  <g>
    <line style="fill: none; fill-opacity:0; stroke-width: 2; stroke: #000000" x1="324.412" y1="1035.78" x2="604.94" y2="1034.8"/>
    <polyline style="fill: none; fill-opacity:0; stroke-width: 2; stroke: #000000" points="597.193,1039.82 607.176,1034.79 597.158,1029.82 "/>
  </g>
  <text style="fill: #000000;text-anchor:start;font-size:9.6;font-family:sanserif;font-style:normal;font-weight:normal" x="335.408" y="1019.15">
    <tspan x="335.408" y="1019.15">T.read_array()</tspan>
  </text>
  <g>
    <line style="fill: none; fill-opacity:0; stroke-width: 2; stroke-dasharray: 20; stroke: #000000" x1="609.152" y1="1059.97" x2="327.38" y2="1060"/>
    <polyline style="fill: none; fill-opacity:0; stroke-width: 2; stroke: #000000" points="335.144,1055 325.144,1060 335.145,1065 "/>
  </g>
  <g>
    <line style="fill: none; fill-opacity:0; stroke-width: 2; stroke: #000000" x1="322.84" y1="1089.96" x2="441.868" y2="1089.48"/>
    <polyline style="fill: none; fill-opacity:0; stroke-width: 2; stroke: #000000" points="434.125,1094.51 444.104,1089.47 434.084,1084.51 "/>
  </g>
  <text style="fill: #000000;text-anchor:start;font-size:9.6;font-family:sanserif;font-style:normal;font-weight:normal" x="329.998" y="1078.15">
    <tspan x="329.998" y="1078.15">TF.return_transport(T)</tspan>
  </text>
  <g>
    <line style="fill: none; fill-opacity:0; stroke-width: 2; stroke-dasharray: 20; stroke: #000000" x1="440.84" y1="1105.59" x2="322.116" y2="1104.97"/>
    <polyline style="fill: none; fill-opacity:0; stroke-width: 2; stroke: #000000" points="329.906,1100.01 319.88,1104.95 329.854,1110.01 "/>
  </g>
  <text style="fill: #000000;text-anchor:start;font-size:9.6;font-family:sanserif;font-style:normal;font-weight:normal" x="495.158" y="1052.15">
    <tspan x="495.158" y="1052.15">value</tspan>
  </text>
</svg>
